<svg width="160" height="30" xmlns="http://www.w3.org/2000/svg">
    <g fill-rule="nonzero" fill="none">
        <path fill="#FFF" d="M43.189 18.005v-9.49l6.467 9.263 6.468-9.262v9.49h4.566V.474h-4.148l-6.886 9.862L42.769.475h-4.148v17.53zM27.033 6.828 22.593.475h-4.909l-.213.27 7.27 10.407v6.853h4.58v-6.853L36.782.475H31.47zM119.54.475H114.943v17.53h4.597zM101.163 4.321v13.684h4.57V4.321h6.45V.475h-17.47V4.32zM132.994 18.005 140.69.475h-4.773l-4.882 11.121L126.153.475h-4.774l7.697 17.53zM143.448.475v17.53H160V14.16h-11.954v-2.995h7.891V7.316h-7.891V4.321H160V.475zM0 .475v17.53h15.632v-3.837L4.5 14.158V4.322h8.2v.01h2.933V.474zM5.983 25.115v-.51H2.352v.51h1.532v4.84h.566v-4.84h1.533zm13.474 4.84v-.51h-2.724v-1.933h2.323v-.51h-2.323v-1.887h2.724v-.51H16.17v5.35h3.288zm13.863-1.547h-.565c-.142.653-.611 1.082-1.274 1.082-.35 0-.685-.135-.915-.376-.335-.346-.372-.714-.372-1.834s.037-1.489.372-1.835c.23-.24.566-.375.915-.375.663 0 1.117.428 1.259 1.082h.58c-.178-1.007-.885-1.593-1.839-1.593-.52 0-.997.196-1.355.556-.497.503-.497 1.03-.497 2.165s0 1.661.497 2.165c.358.36.834.555 1.355.555.946 0 1.668-.585 1.84-1.592zm14.093 1.547v-5.35h-.564v2.397H44.33v-2.397h-.565v5.35h.565v-2.443h2.518v2.443h.564zm14.644 0v-5.35h-.565v4.276l-2.815-4.276h-.536v5.35h.566v-4.29l2.815 4.29h.535zm14.235-2.675c0-1.135 0-1.662-.5-2.165a1.87 1.87 0 0 0-1.354-.556 1.87 1.87 0 0 0-1.355.556c-.498.503-.498 1.03-.498 2.165s0 1.661.498 2.165c.357.36.827.555 1.355.555a1.87 1.87 0 0 0 1.355-.555c.499-.504.499-1.03.499-2.165zm-.565 0c0 1.12-.038 1.48-.373 1.827a1.28 1.28 0 0 1-.916.383c-.35 0-.685-.143-.916-.383-.335-.346-.372-.707-.372-1.827s.037-1.481.372-1.826c.23-.241.566-.384.916-.384.35 0 .685.143.916.384.335.345.373.706.373 1.826zm14.366 2.675v-.51h-2.71v-4.84h-.564v5.35h3.274zm13.423-2.675c0-1.135 0-1.662-.498-2.165a1.871 1.871 0 0 0-1.356-.556 1.87 1.87 0 0 0-1.355.556c-.498.503-.498 1.03-.498 2.165s0 1.661.498 2.165c.357.36.827.555 1.355.555.529 0 .998-.195 1.356-.555.498-.504.498-1.03.498-2.165zm-.566 0c0 1.12-.037 1.48-.371 1.827-.231.24-.567.383-.917.383a1.28 1.28 0 0 1-.917-.383c-.334-.346-.371-.707-.371-1.827s.037-1.481.371-1.826c.232-.241.568-.384.917-.384.35 0 .686.143.917.384.334.345.371.706.371 1.826zm14.614.72v-.847h-1.868v.502h1.302v.406c0 .414-.081.707-.297.97-.246.301-.618.459-1.005.459-.35 0-.685-.135-.916-.376-.336-.346-.372-.714-.372-1.834s.036-1.481.372-1.826c.23-.241.566-.384.916-.384.662 0 1.138.413 1.288 1.09h.565c-.157-.94-.841-1.6-1.853-1.6-.529 0-.998.195-1.355.555-.498.503-.498 1.03-.498 2.165 0 1.134 0 1.661.498 2.165.357.36.834.555 1.355.555.543 0 1.042-.21 1.414-.616.328-.352.454-.766.454-1.383zm10.512 1.955h.565v-5.35h-.565v5.35zm14.584 0v-.51h-2.725v-1.933h2.323v-.51h-2.323v-1.887h2.725v-.51h-3.29v5.35h3.29zm13.564-1.472c0-.444-.156-.812-.446-1.06-.223-.196-.469-.3-.967-.376l-.582-.091c-.276-.045-.551-.15-.714-.293-.165-.142-.239-.353-.239-.616 0-.593.41-.992 1.118-.992.558 0 .907.158 1.235.458l.365-.368c-.454-.413-.902-.586-1.58-.586-1.049 0-1.695.601-1.695 1.511 0 .428.133.759.401 1 .23.202.558.337.976.405l.618.098c.387.06.521.106.692.256.171.15.254.39.254.669 0 .623-.478.992-1.252.992-.596 0-1.006-.143-1.444-.586l-.387.39c.498.503 1.02.706 1.817.706 1.102 0 1.83-.578 1.83-1.517z"/>
        <path d="M87.936 4.063c-2.743 0-4.974 2.253-4.974 5.022 0 2.768 2.23 5.02 4.974 5.02 2.743 0 4.974-2.252 4.974-5.02 0-2.769-2.23-5.022-4.974-5.022" fill="#004E83"/>
        <path d="M87.936 15.866c-3.704 0-6.717-3.042-6.717-6.781 0-3.74 3.013-6.782 6.717-6.782.36 0 .71.037 1.056.092A8.904 8.904 0 0 0 82.925 0c-4.963 0-8.999 4.076-8.999 9.085 0 5.008 4.036 9.084 8.999 9.084 2.338 0 4.464-.914 6.067-2.395a6.69 6.69 0 0 1-1.056.092" fill="#0093CE"/>
        <path d="M72.183 9.084c0-3.55 1.706-6.699 4.328-8.679H64.048v17.358H76.51a10.857 10.857 0 0 1-4.327-8.679" fill="#82CFF4"/>
    </g>
</svg>
